<svg width="37" height="39" viewBox="0 0 37 39" fill="none" xmlns="http://www.w3.org/2000/svg">
<g clip-path="url(#clip0_31_24)">
<path d="M34.6112 11.8745C24.3569 11.8745 14.1015 11.8745 3.8451 11.8745C2.41495 11.8745 1.53574 12.7603 1.53156 14.2057C1.52633 15.5807 1.53156 16.9557 1.53156 18.3307V20.3544H2.0135C3.33075 20.3544 4.65322 20.2914 5.96629 20.3775C8.12825 20.5213 9.72985 21.6024 10.5557 23.6313C11.8563 26.839 9.53122 30.3836 6.07815 30.5096C4.73581 30.5578 3.39034 30.5211 2.04696 30.5253C1.90687 30.5253 1.76783 30.5369 1.60474 30.5442C1.59742 30.7058 1.58697 30.8328 1.58697 30.964C1.58697 32.8632 1.58697 34.7623 1.58697 36.6614C1.58697 38.1204 2.4714 39.0021 3.93501 39.0021H34.6572C36.1208 39.0021 36.9979 38.1194 36.9979 36.6562C36.9979 29.1898 36.9979 21.7245 36.9979 14.2603C36.9979 12.8223 36.0434 11.8745 34.6112 11.8745ZM24.2394 34.1885C21.9489 34.1529 19.7651 33.2101 18.1637 31.5653C16.5624 29.9206 15.6731 27.7073 15.6897 25.4073C15.7062 23.1073 16.6272 20.9071 18.2521 19.2858C19.877 17.6645 22.0741 16.7534 24.3649 16.751C29.1885 16.7773 33.0702 20.6819 33.042 25.4734C33.0085 30.2881 29.0453 34.2126 24.2394 34.1885Z" fill="#dce7f7"/>
<path d="M30.9574 2.61883L27.3067 3.94452C21.2711 6.13614 15.2358 8.32637 9.20083 10.5152C8.94377 10.6043 8.67405 10.651 8.40212 10.6537C7.3985 10.6695 6.39384 10.6537 5.39023 10.6663C5.0975 10.6663 5.01178 10.5687 4.99714 10.2853C4.91142 8.71613 5.77808 7.46287 7.33369 6.92651C11.3189 5.5417 15.3037 4.15514 19.2882 2.76683C21.7105 1.92713 24.1328 1.07588 26.5571 0.239327C28.6187 -0.47547 30.3583 0.45345 30.9574 2.61883Z" fill="#dce7f7"/>
<path d="M9.55633 24.7565C9.2427 22.9312 7.58569 21.5971 5.55651 21.5698C4.22776 21.553 2.89797 21.5604 1.56922 21.5698C0.595921 21.5761 0.0115233 22.166 0.00106894 23.138C-0.00520366 23.8958 0.00106894 24.6547 0.00106894 25.4136C0.00106894 26.2113 -0.00833996 27.009 0.00106894 27.8078C0.0136142 28.6475 0.628329 29.3014 1.44168 29.3098C2.92724 29.3255 4.41385 29.3518 5.89836 29.3004C8.27254 29.2164 9.95883 27.0961 9.55633 24.7565ZM6.45035 26.0874C6.03218 26.0874 5.77291 25.8408 5.78545 25.4461C5.79695 25.0745 6.05413 24.8499 6.46081 24.8573C6.86748 24.8646 7.11629 25.106 7.11316 25.4766C7.11002 25.8471 6.84971 26.0843 6.45035 26.0864V26.0874Z" fill="#dce7f7"/>
<path d="M32.2569 6.2054L30.4566 6.86247C27.1161 8.08214 23.7749 9.29971 20.433 10.5152C20.1763 10.6057 19.9064 10.6525 19.6343 10.6537C17.4295 10.6653 15.2247 10.66 13.0198 10.66H12.6498C12.6498 10.6306 12.6404 10.6012 12.6362 10.5729L31.4059 3.77026L32.2569 6.2054Z" fill="#dce7f7"/>
<path d="M33.7664 10.6359H23.8442C23.8359 10.6138 23.8286 10.5918 23.8202 10.5708L32.6217 7.36627C33.0075 8.46838 33.3765 9.5369 33.7664 10.6359Z" fill="#dce7f7"/>
<path d="M31.7624 26.121C31.7131 26.9868 31.4901 27.8336 31.1069 28.6107C31.0879 28.6483 31.0608 28.6811 31.0275 28.7067C30.9942 28.7323 30.9556 28.7501 30.9146 28.7587C29.7196 28.7682 28.5247 28.7661 27.29 28.7661C27.3549 27.8666 27.4165 27.0101 27.4803 26.121H31.7624Z" fill="#dce7f7"/>
<path d="M21.3541 22.1094C21.2934 23.0215 21.2349 23.878 21.1753 24.765H16.9089C16.9485 23.8764 17.1812 23.0073 17.5905 22.2186C17.6178 22.1856 17.652 22.1591 17.6907 22.1409C17.7293 22.1228 17.7715 22.1135 17.8142 22.1136C18.9788 22.1083 20.1487 22.1094 21.3541 22.1094Z" fill="#dce7f7"/>
<path d="M31.823 24.766H27.4834C27.4196 23.8937 27.3569 23.0372 27.2879 22.1094H30.1106C31.0912 22.1094 31.1079 22.1094 31.4048 23.0614C31.5752 23.6019 31.6787 24.1666 31.823 24.766Z" fill="#dce7f7"/>
<path d="M21.3478 28.6591C21.2697 28.6773 21.1904 28.6892 21.1104 28.6948C20.042 28.6948 18.9736 28.7 17.9041 28.6948C17.7912 28.6948 17.6124 28.6517 17.5769 28.5751C17.1932 27.7815 16.9627 26.9221 16.8973 26.0424H21.1721C21.2307 26.9156 21.2882 27.7732 21.3478 28.6591Z" fill="#dce7f7"/>
<path d="M26.2603 24.7712H22.457C22.4988 24.0858 22.5218 23.4067 22.5876 22.7412C22.6493 22.1115 22.6692 22.1115 23.2944 22.1115H26.0731C26.1359 23.0099 26.1975 23.8769 26.2603 24.7712Z" fill="#dce7f7"/>
<path d="M26.2038 26.035C26.1473 26.9209 26.0919 27.7952 26.0365 28.6811H22.5866C22.5228 27.812 22.4601 26.9461 22.3932 26.035H26.2038Z" fill="#dce7f7"/>
<path d="M25.8076 20.8929H22.8574C23.0664 19.922 23.2964 18.9773 23.8965 18.1806C24.1767 17.807 24.4987 17.7944 24.7391 18.2237C25.1061 18.8776 25.3664 19.5882 25.6643 20.282C25.7286 20.4814 25.7765 20.6857 25.8076 20.8929Z" fill="#dce7f7"/>
<path d="M25.7449 30.0047C25.5442 30.8937 25.3267 31.7366 24.8604 32.4902C24.4799 33.1105 24.159 33.1116 23.7659 32.4986C23.2829 31.7439 23.0173 30.9032 22.7968 30.0047H25.7449Z" fill="#dce7f7"/>
<path d="M22.4486 32.6938C20.8167 32.2645 19.4775 31.3808 18.3432 29.9753C19.4493 29.9753 20.4341 29.969 21.4241 29.9848C21.4801 29.9984 21.5321 30.0252 21.5757 30.0629C21.6193 30.1007 21.6534 30.1484 21.675 30.202C21.9405 31.0186 22.1904 31.8405 22.4486 32.6938Z" fill="#dce7f7"/>
<path d="M30.3071 29.9763C29.279 31.3167 27.8369 32.2765 26.2069 32.7054C26.4944 31.8405 26.7694 31.0018 27.0558 30.1684C27.083 30.0907 27.1844 29.9847 27.2534 29.9847C28.2392 29.9721 29.2261 29.9763 30.3071 29.9763Z" fill="#dce7f7"/>
<path d="M22.4256 18.1859L21.5631 20.8729H18.4268C19.4858 19.48 20.8198 18.6298 22.4256 18.1859Z" fill="#dce7f7"/>
<path d="M30.303 20.8834H27.1343C26.8447 19.988 26.5582 19.099 26.2582 18.1764C27.8838 18.634 29.2073 19.5157 30.303 20.8834Z" fill="#dce7f7"/>
</g>
<defs>
<clipPath id="clip0_31_24">
<rect width="37" height="39" fill="white"/>
</clipPath>
</defs>
</svg>
