<svg id="visual" viewBox="0 0 900 600" width="900" height="600" xmlns="http://www.w3.org/2000/svg" xmlns:xlink="http://www.w3.org/1999/xlink" version="1.1"><rect x="0" y="0" width="900" height="600" fill="#0066ff"></rect><path d="M0 483L12.5 480.8C25 478.7 50 474.3 75 475.8C100 477.3 125 484.7 150 492C175 499.3 200 506.7 225 502C250 497.3 275 480.7 300 476.2C325 471.7 350 479.3 375 490.3C400 501.3 425 515.7 450 526.7C475 537.7 500 545.3 525 536.3C550 527.3 575 501.7 600 497.3C625 493 650 510 675 516.7C700 523.3 725 519.7 750 509.7C775 499.7 800 483.3 825 482.7C850 482 875 497 887.5 504.5L900 512L900 601L887.5 601C875 601 850 601 825 601C800 601 775 601 750 601C725 601 700 601 675 601C650 601 625 601 600 601C575 601 550 601 525 601C500 601 475 601 450 601C425 601 400 601 375 601C350 601 325 601 300 601C275 601 250 601 225 601C200 601 175 601 150 601C125 601 100 601 75 601C50 601 25 601 12.5 601L0 601Z" fill="#dce7f7" stroke-linecap="round" stroke-linejoin="miter"></path></svg>