<svg id="visual" viewBox="0 0 1920 1080" width="1920" height="1080" xmlns="http://www.w3.org/2000/svg" xmlns:xlink="http://www.w3.org/1999/xlink" version="1.1"><path d="M0 843L45.7 815C91.3 787 182.7 731 274.2 744C365.7 757 457.3 839 548.8 848.5C640.3 858 731.7 795 823 781.2C914.3 767.3 1005.7 802.7 1097 835.7C1188.3 868.7 1279.7 899.3 1371.2 874.3C1462.7 849.3 1554.3 768.7 1645.8 749.5C1737.3 730.3 1828.7 772.7 1874.3 793.8L1920 815L1920 1081L1874.3 1081C1828.7 1081 1737.3 1081 1645.8 1081C1554.3 1081 1462.7 1081 1371.2 1081C1279.7 1081 1188.3 1081 1097 1081C1005.7 1081 914.3 1081 823 1081C731.7 1081 640.3 1081 548.8 1081C457.3 1081 365.7 1081 274.2 1081C182.7 1081 91.3 1081 45.7 1081L0 1081Z" fill="#0033bb" stroke-linecap="round" stroke-linejoin="miter"></path></svg>