<svg id="visual" viewBox="0 0 1920 1080" width="1920" height="1080" xmlns="http://www.w3.org/2000/svg" xmlns:xlink="http://www.w3.org/1999/xlink" version="1.1"><path d="M0 838L29.2 840.3C58.3 842.7 116.7 847.3 174.8 866.8C233 886.3 291 920.7 349.2 937C407.3 953.3 465.7 951.7 523.8 926.8C582 902 640 854 698.2 846.3C756.3 838.7 814.7 871.3 872.8 897.7C931 924 989 944 1047.2 924.8C1105.3 905.7 1163.7 847.3 1221.8 823C1280 798.7 1338 808.3 1396.2 832.7C1454.3 857 1512.7 896 1570.8 917.8C1629 939.7 1687 944.3 1745.2 925.3C1803.3 906.3 1861.7 863.7 1890.8 842.3L1920 821L1920 1081L1890.8 1081C1861.7 1081 1803.3 1081 1745.2 1081C1687 1081 1629 1081 1570.8 1081C1512.7 1081 1454.3 1081 1396.2 1081C1338 1081 1280 1081 1221.8 1081C1163.7 1081 1105.3 1081 1047.2 1081C989 1081 931 1081 872.8 1081C814.7 1081 756.3 1081 698.2 1081C640 1081 582 1081 523.8 1081C465.7 1081 407.3 1081 349.2 1081C291 1081 233 1081 174.8 1081C116.7 1081 58.3 1081 29.2 1081L0 1081Z" fill="#eaf3ff" stroke-linecap="round" stroke-linejoin="miter"></path></svg>