<svg id="visual" viewBox="0 0 1920 1080" width="1920" height="1080" xmlns="http://www.w3.org/2000/svg" xmlns:xlink="http://www.w3.org/1999/xlink" version="1.1"><path d="M0 191L29.2 188C58.3 185 116.7 179 174.8 183.3C233 187.7 291 202.3 349.2 200.2C407.3 198 465.7 179 523.8 162.8C582 146.7 640 133.3 698.2 137.3C756.3 141.3 814.7 162.7 872.8 167.5C931 172.3 989 160.7 1047.2 145.8C1105.3 131 1163.7 113 1221.8 120.7C1280 128.3 1338 161.7 1396.2 179.2C1454.3 196.7 1512.7 198.3 1570.8 199.2C1629 200 1687 200 1745.2 181.2C1803.3 162.3 1861.7 124.7 1890.8 105.8L1920 87L1920 0L1890.8 0C1861.7 0 1803.3 0 1745.2 0C1687 0 1629 0 1570.8 0C1512.7 0 1454.3 0 1396.2 0C1338 0 1280 0 1221.8 0C1163.7 0 1105.3 0 1047.2 0C989 0 931 0 872.8 0C814.7 0 756.3 0 698.2 0C640 0 582 0 523.8 0C465.7 0 407.3 0 349.2 0C291 0 233 0 174.8 0C116.7 0 58.3 0 29.2 0L0 0Z" fill="#eaf3ff" stroke-linecap="round" stroke-linejoin="miter"></path></svg>