<svg xmlns="http://www.w3.org/2000/svg" viewBox="0 0 277.01 49.87"><defs><style>.cls-1{fill:#14121f;}</style></defs><title>logo</title><g id="Capa_1" data-name="Capa 1"><path class="cls-1" d="M54.93,25.25H15.43a2.76,2.76,0,0,0-3,3v7.86h.62c1.69,0,3.38-.08,5.07,0a6.48,6.48,0,0,1,.14,13c-1.72.06-3.45,0-5.17,0l-.57,0c0,.21,0,.37,0,.54,0,2.42,0,4.85,0,7.28a2.76,2.76,0,0,0,3,3H55a2.77,2.77,0,0,0,3-3V28.3A2.89,2.89,0,0,0,54.93,25.25ZM41.62,53.78a11.15,11.15,0,1,1,11.3-11.14A11.27,11.27,0,0,1,41.62,53.78Z" transform="translate(-10.5 -10.07)"/><path class="cls-1" d="M50.24,13.41l-4.68,1.7-23.25,8.4a3.23,3.23,0,0,1-1,.18c-1.28,0-2.57,0-3.86,0-.38,0-.49-.12-.51-.48a4.16,4.16,0,0,1,3-4.3L35.26,13.6l9.33-3.23A4.1,4.1,0,0,1,50.24,13.41Z" transform="translate(-10.5 -10.07)"/><path class="cls-1" d="M22.77,41.72a5.1,5.1,0,0,0-5.14-4.07c-1.7,0-3.41,0-5.12,0a1.87,1.87,0,0,0-2,2v2.91c0,1,0,2,0,3.06a1.87,1.87,0,0,0,1.85,1.92c1.9,0,3.81.06,5.72,0A4.92,4.92,0,0,0,22.77,41.72Zm-4,1.7a.79.79,0,1,1,0-1.57.79.79,0,1,1,0,1.57Z" transform="translate(-10.5 -10.07)"/><path class="cls-1" d="M51.91,18l-2.31.84L36.73,23.51a3,3,0,0,1-1,.18h-9s0-.08,0-.11l24.1-8.7C51.19,15.93,51.54,16.94,51.91,18Z" transform="translate(-10.5 -10.07)"/><path class="cls-1" d="M53.85,23.67H41.11l0-.09,11.3-4.1C52.87,20.89,53.35,22.26,53.85,23.67Z" transform="translate(-10.5 -10.07)"/><path class="cls-1" d="M19.63,42.64a.86.86,0,1,1-.84-.79A.77.77,0,0,1,19.63,42.64Z" transform="translate(-10.5 -10.07)"/><path class="cls-1" d="M51.28,43.47a8.13,8.13,0,0,1-.85,3.18.37.37,0,0,1-.24.19H45.53c.09-1.15.17-2.25.25-3.38Z" transform="translate(-10.5 -10.07)"/><path class="cls-1" d="M37.91,38.34c-.08,1.16-.15,2.26-.23,3.39H32.21a7.78,7.78,0,0,1,.86-3.25.37.37,0,0,1,.29-.14Z" transform="translate(-10.5 -10.07)"/><path class="cls-1" d="M51.35,41.73H45.78c-.08-1.11-.16-2.21-.25-3.39h3.63c1.26,0,1.28,0,1.66,1.21C51,40.25,51.17,41,51.35,41.73Z" transform="translate(-10.5 -10.07)"/><path class="cls-1" d="M37.9,46.71a1.25,1.25,0,0,1-.3,0H33.48c-.14,0-.37,0-.42-.15a9.16,9.16,0,0,1-.87-3.24h5.49C37.75,44.48,37.83,45.58,37.9,46.71Z" transform="translate(-10.5 -10.07)"/><path class="cls-1" d="M44.21,41.74H39.33c.05-.88.08-1.74.17-2.6s.1-.8.9-.8H44C44.05,39.49,44.13,40.6,44.21,41.74Z" transform="translate(-10.5 -10.07)"/><path class="cls-1" d="M44.14,43.36c-.07,1.13-.14,2.25-.22,3.38H39.5c-.08-1.11-.16-2.22-.25-3.38Z" transform="translate(-10.5 -10.07)"/><path class="cls-1" d="M43.63,36.78H39.84a8.7,8.7,0,0,1,1.34-3.47c.36-.47.77-.49,1.08.06A26,26,0,0,1,43.45,36,6,6,0,0,1,43.63,36.78Z" transform="translate(-10.5 -10.07)"/><path class="cls-1" d="M43.55,48.43a10.29,10.29,0,0,1-1.13,3.18c-.49.79-.9.79-1.41,0a10.19,10.19,0,0,1-1.24-3.19Z" transform="translate(-10.5 -10.07)"/><path class="cls-1" d="M39.32,51.87a9.79,9.79,0,0,1-5.27-3.47c1.42,0,2.69,0,4,0a.46.46,0,0,1,.32.27C38.67,49.73,39,50.78,39.32,51.87Z" transform="translate(-10.5 -10.07)"/><path class="cls-1" d="M49.41,48.4a9.8,9.8,0,0,1-5.27,3.49l1.09-3.25c0-.1.17-.23.26-.23C46.75,48.39,48,48.4,49.41,48.4Z" transform="translate(-10.5 -10.07)"/><path class="cls-1" d="M39.29,33.32c-.37,1.14-.73,2.27-1.11,3.43h-4A9.33,9.33,0,0,1,39.29,33.32Z" transform="translate(-10.5 -10.07)"/><path class="cls-1" d="M49.4,36.77H45.33l-1.12-3.46A9.82,9.82,0,0,1,49.4,36.77Z" transform="translate(-10.5 -10.07)"/><path class="cls-1" d="M67.53,16.5H83.61a2.92,2.92,0,0,1,2.09.79,2.68,2.68,0,0,1,.84,2,2.46,2.46,0,0,1-.84,1.94,3,3,0,0,1-2.09.75H70.17l.43-.82v9.36l-.38-.38H81.45a2.92,2.92,0,0,1,2.09.79,2.68,2.68,0,0,1,.84,2A2.46,2.46,0,0,1,83.54,35a3,3,0,0,1-2.09.75H70.36l.24-.39V45l-.38-.43H83.61a2.84,2.84,0,0,1,2.09.84,2.67,2.67,0,0,1,.84,1.94,2.55,2.55,0,0,1-.84,2,3,3,0,0,1-2.09.77H67.53a2.87,2.87,0,0,1-2.93-2.93V19.42a2.87,2.87,0,0,1,2.93-2.92Z" transform="translate(-10.5 -10.07)"/><path class="cls-1" d="M108.42,23.94a2.82,2.82,0,0,1,2.07.81,2.88,2.88,0,0,1,.81,2.11V47.17a2.9,2.9,0,0,1-.81,2.09,3,3,0,0,1-4.13,0,2.91,2.91,0,0,1-.82-2.09V44.82l1.06.43a2.66,2.66,0,0,1-.67,1.51,9.08,9.08,0,0,1-1.83,1.75A10.9,10.9,0,0,1,101.39,50a9.35,9.35,0,0,1-3.38.6,10.94,10.94,0,0,1-6-1.71,12,12,0,0,1-4.25-4.7,14.73,14.73,0,0,1-1.56-6.89,14.85,14.85,0,0,1,1.56-6.94,12.14,12.14,0,0,1,4.2-4.7,10.54,10.54,0,0,1,5.86-1.7,11,11,0,0,1,3.79.62,11.51,11.51,0,0,1,3,1.58,9.34,9.34,0,0,1,2,1.95,3.13,3.13,0,0,1,.69,1.65l-1.73.63V26.86a2.88,2.88,0,0,1,.82-2.08A2.74,2.74,0,0,1,108.42,23.94ZM98.73,45.3a6.5,6.5,0,0,0,3.69-1.06,7.13,7.13,0,0,0,2.48-2.88,9.22,9.22,0,0,0,.88-4.08,9.34,9.34,0,0,0-.88-4.13,7.26,7.26,0,0,0-2.48-2.88,6.94,6.94,0,0,0-7.34,0,7.16,7.16,0,0,0-2.47,2.88,9.35,9.35,0,0,0-.89,4.13,9.22,9.22,0,0,0,.89,4.08,7,7,0,0,0,2.47,2.88A6.46,6.46,0,0,0,98.73,45.3Z" transform="translate(-10.5 -10.07)"/><path class="cls-1" d="M111.88,46.11a2.68,2.68,0,0,1-.43-1.73,2.29,2.29,0,0,1,1.25-1.82,2.58,2.58,0,0,1,1.63-.41A2.79,2.79,0,0,1,116,43a11,11,0,0,0,2.93,2.16,8.55,8.55,0,0,0,3.84.77,11.44,11.44,0,0,0,1.58-.22,3,3,0,0,0,1.51-.77,2.39,2.39,0,0,0,.65-1.84,2.09,2.09,0,0,0-.72-1.68,6,6,0,0,0-1.9-1.06c-.78-.29-1.65-.56-2.61-.82s-2-.6-3.05-1a12.77,12.77,0,0,1-2.86-1.36A6.58,6.58,0,0,1,113.27,35a6.84,6.84,0,0,1-.81-3.5,6.3,6.3,0,0,1,1.34-4.08,8.71,8.71,0,0,1,3.48-2.59,11.26,11.26,0,0,1,4.49-.91,14.52,14.52,0,0,1,3.12.36A12.35,12.35,0,0,1,128,25.45a7.64,7.64,0,0,1,2.49,2.09,3.46,3.46,0,0,1,.63,1.72,2.07,2.07,0,0,1-.92,1.83,2.3,2.3,0,0,1-1.67.5,2.52,2.52,0,0,1-1.59-.65,5.72,5.72,0,0,0-2.18-1.68,7.6,7.6,0,0,0-3.15-.62,8.16,8.16,0,0,0-1.56.17,3,3,0,0,0-1.46.72,2.59,2.59,0,0,0,.1,3.5,5.31,5.31,0,0,0,1.94,1.06c.82.27,1.69.54,2.61.79s1.94.56,2.93.91a11.76,11.76,0,0,1,2.74,1.39,6.71,6.71,0,0,1,2,2.24,7.06,7.06,0,0,1,.76,3.48,6.29,6.29,0,0,1-1.44,4.17,9.12,9.12,0,0,1-3.6,2.62,11.54,11.54,0,0,1-4.41.89,17.1,17.1,0,0,1-5.67-1A9.72,9.72,0,0,1,111.88,46.11Z" transform="translate(-10.5 -10.07)"/><path class="cls-1" d="M151.38,24.42a2.78,2.78,0,0,1,2.07.84,2.87,2.87,0,0,1,.81,2.08v20.4a13.1,13.1,0,0,1-1.65,7,9.43,9.43,0,0,1-4.44,3.76,16.17,16.17,0,0,1-6.24,1.16,23.88,23.88,0,0,1-3.27-.24,11.05,11.05,0,0,1-2.83-.72,4.15,4.15,0,0,1-2-1.56,2.38,2.38,0,0,1-.22-2A3.07,3.07,0,0,1,135,53.29a2.38,2.38,0,0,1,2-.12c.51.16,1.18.41,2,.74a7.55,7.55,0,0,0,2.88.51,9.75,9.75,0,0,0,3.67-.6,4.27,4.27,0,0,0,2.21-2,8.44,8.44,0,0,0,.74-3.86V44.72l1,1.15a8.57,8.57,0,0,1-2,2.62,8.35,8.35,0,0,1-2.9,1.56,13,13,0,0,1-3.84.53,8.33,8.33,0,0,1-4.45-1.18,8,8,0,0,1-3-3.26,10.54,10.54,0,0,1-1-4.78v-14a2.87,2.87,0,0,1,.81-2.08,2.78,2.78,0,0,1,2.07-.84,2.74,2.74,0,0,1,2.06.84,2.88,2.88,0,0,1,.82,2.08V39.63c0,2.08.45,3.55,1.37,4.39a5.37,5.37,0,0,0,3.81,1.28,5.72,5.72,0,0,0,2.83-.65,4.31,4.31,0,0,0,1.78-1.92,7.08,7.08,0,0,0,.62-3.1V27.34a2.84,2.84,0,0,1,.82-2.08A2.74,2.74,0,0,1,151.38,24.42Z" transform="translate(-10.5 -10.07)"/><path class="cls-1" d="M159.83,16.45a3.28,3.28,0,0,1,1.42.36,2.75,2.75,0,0,1,1.12.93L174,35.7l-2.4-.1,12-17.86a2.77,2.77,0,0,1,2.35-1.29,3,3,0,0,1,2.07.81,2.74,2.74,0,0,1,.91,2.12V47.17a2.84,2.84,0,0,1-3,2.93,3,3,0,0,1-2.18-.84,2.84,2.84,0,0,1-.84-2.09V24.56l1.87.43L175,39.92a4,4,0,0,1-1.08.91,2.22,2.22,0,0,1-1.32.34,2.12,2.12,0,0,1-1.27-.34,3.73,3.73,0,0,1-1.08-.91l-9.17-14.5,1.25-2.54V47.17a3,3,0,0,1-.77,2.09,2.61,2.61,0,0,1-2,.84,2.56,2.56,0,0,1-2-.84,3,3,0,0,1-.76-2.09V19.38a2.8,2.8,0,0,1,.88-2.07A3,3,0,0,1,159.83,16.45Z" transform="translate(-10.5 -10.07)"/><path class="cls-1" d="M216.37,37.28a13.5,13.5,0,0,1-1.75,6.94,12.57,12.57,0,0,1-4.7,4.68,13.8,13.8,0,0,1-13.2,0A12.59,12.59,0,0,1,192,44.22a13.6,13.6,0,0,1-1.75-6.94A13.6,13.6,0,0,1,192,30.34a12.79,12.79,0,0,1,4.71-4.7,13.66,13.66,0,0,1,13.2,0,12.77,12.77,0,0,1,4.7,4.7A13.5,13.5,0,0,1,216.37,37.28Zm-5.76,0a8.69,8.69,0,0,0-1-4.25A7.45,7.45,0,0,0,207,30.22a7.23,7.23,0,0,0-7.34,0A7.3,7.3,0,0,0,197,33a8.69,8.69,0,0,0-1,4.25,8.58,8.58,0,0,0,1,4.2,7.23,7.23,0,0,0,2.64,2.81,7.17,7.17,0,0,0,7.34,0,7.38,7.38,0,0,0,2.64-2.81A8.57,8.57,0,0,0,210.61,37.28Z" transform="translate(-10.5 -10.07)"/><path class="cls-1" d="M231,23.94a8.51,8.51,0,0,1,5.41,1.48,7.61,7.61,0,0,1,2.54,4,20.43,20.43,0,0,1,.7,5.5V47.17a2.91,2.91,0,0,1-.82,2.09,3,3,0,0,1-4.13,0,2.91,2.91,0,0,1-.82-2.09V34.88a9.41,9.41,0,0,0-.4-2.86A4,4,0,0,0,232,30a5.08,5.08,0,0,0-3-.76,6.37,6.37,0,0,0-3.24.76,5.41,5.41,0,0,0-2,2,5.9,5.9,0,0,0-.69,2.86V47.17a2.91,2.91,0,0,1-.82,2.09,2.74,2.74,0,0,1-2.06.84,2.78,2.78,0,0,1-2.07-.84,2.9,2.9,0,0,1-.81-2.09V27.34a2.87,2.87,0,0,1,.81-2.08,2.78,2.78,0,0,1,2.07-.84,2.74,2.74,0,0,1,2.06.84,2.88,2.88,0,0,1,.82,2.08v2.07l-.72-.15a9.65,9.65,0,0,1,1.25-1.75,11.63,11.63,0,0,1,1.92-1.75,9.84,9.84,0,0,1,2.49-1.32A8.74,8.74,0,0,1,231,23.94Z" transform="translate(-10.5 -10.07)"/><path class="cls-1" d="M253.76,50.58a14.06,14.06,0,0,1-7.08-1.71,11.7,11.7,0,0,1-4.6-4.63,13.44,13.44,0,0,1-1.61-6.62,14.54,14.54,0,0,1,1.75-7.37,12.48,12.48,0,0,1,4.58-4.68,11.82,11.82,0,0,1,6-1.63,11,11,0,0,1,4.64,1,13,13,0,0,1,3.86,2.76A13.29,13.29,0,0,1,264,31.76a12.3,12.3,0,0,1,1,4.9,2.48,2.48,0,0,1-.91,1.87,3.07,3.07,0,0,1-2,.72H243.68l-1.43-4.8h17.61l-1.06,1v-1.3a4.32,4.32,0,0,0-1-2.49,6.48,6.48,0,0,0-2.21-1.76,6.29,6.29,0,0,0-2.81-.64,8.91,8.91,0,0,0-2.68.38A5.08,5.08,0,0,0,248,30.9a6.18,6.18,0,0,0-1.44,2.44,12,12,0,0,0-.53,3.89,8.38,8.38,0,0,0,1.08,4.39,7.37,7.37,0,0,0,2.78,2.74,7.5,7.5,0,0,0,3.63.94,11.27,11.27,0,0,0,2.83-.29,6.36,6.36,0,0,0,1.7-.7c.44-.27.83-.5,1.18-.69a3.63,3.63,0,0,1,1.63-.44,2.42,2.42,0,0,1,2.45,2.4,3,3,0,0,1-1.35,2.36,11.26,11.26,0,0,1-3.5,1.85A14.17,14.17,0,0,1,253.76,50.58Z" transform="translate(-10.5 -10.07)"/><path class="cls-1" d="M284.63,24.42a2.74,2.74,0,0,1,2.06.84,2.84,2.84,0,0,1,.82,2.08v20.4a13,13,0,0,1-1.66,7,9.34,9.34,0,0,1-4.44,3.76,16.1,16.1,0,0,1-6.24,1.16,23.74,23.74,0,0,1-3.26-.24,10.94,10.94,0,0,1-2.83-.72,4.18,4.18,0,0,1-2-1.56,2.38,2.38,0,0,1-.21-2,3,3,0,0,1,1.39-1.89,2.38,2.38,0,0,1,2-.12c.51.16,1.18.41,2,.74a7.59,7.59,0,0,0,2.88.51,9.71,9.71,0,0,0,3.67-.6,4.23,4.23,0,0,0,2.21-2,8.3,8.3,0,0,0,.75-3.86V44.72l1,1.15a8.28,8.28,0,0,1-2,2.62,8.18,8.18,0,0,1-2.9,1.56,12.87,12.87,0,0,1-3.84.53,8.27,8.27,0,0,1-4.44-1.18,8,8,0,0,1-2.95-3.26,10.41,10.41,0,0,1-1.06-4.78v-14a2.84,2.84,0,0,1,.82-2.08,3,3,0,0,1,4.13,0,2.87,2.87,0,0,1,.81,2.08V39.63c0,2.08.46,3.55,1.37,4.39a5.38,5.38,0,0,0,3.82,1.28,5.72,5.72,0,0,0,2.83-.65,4.31,4.31,0,0,0,1.78-1.92,7.08,7.08,0,0,0,.62-3.1V27.34a2.84,2.84,0,0,1,.82-2.08A2.74,2.74,0,0,1,284.63,24.42Z" transform="translate(-10.5 -10.07)"/></g></svg>